<?xml version="1.0" encoding="utf-8"?>
<!-- Generator: Adobe Illustrator 25.2.3, SVG Export Plug-In . SVG Version: 6.00 Build 0)  -->
<svg version="1.1" id="Layer_2" xmlns="http://www.w3.org/2000/svg" xmlns:xlink="http://www.w3.org/1999/xlink" x="0px" y="0px"
	 viewBox="0 0 506.6 469.8" style="enable-background:new 0 0 506.6 469.8;" xml:space="preserve">
<style type="text/css">
	.st0{fill:#FFFFFF;}
	.st1{fill-rule:evenodd;clip-rule:evenodd;}
	.st2{fill-rule:evenodd;clip-rule:evenodd;fill:#FFFFFF;}
</style>
<ellipse transform="matrix(0.7071 -0.7071 0.7071 0.7071 -353.9897 1176.1425)" cx="1242.7" cy="1015.4" rx="129.5" ry="129.5"/>
<path d="M1353.3,305.9h-23.5v95.6h-63.5v-44.9c0-13-10.5-23.6-23.5-23.6h0c-13,0-23.5,10.5-23.5,23.6v44.9h-63.5v-95.6h-23.5
	l110.6-104.7l41.7,39.5v-22.5h30.7v51.6L1353.3,305.9z"/>
<path d="M1318.8,646.8h-16.2v65.8h-43.7v-30.9c0-9-7.2-16.2-16.2-16.2h0c-8.9,0-16.2,7.2-16.2,16.2v30.9h-43.7v-65.8h-16.2l76-72
	l28.7,27.2v-15.5h21.1V622L1318.8,646.8z"/>
<g>
	<path d="M1242.7,777.5c-73.8,0-133.8-60-133.8-133.8c0-73.8,60-133.8,133.8-133.8c73.8,0,133.8,60,133.8,133.8
		C1376.5,717.5,1316.5,777.5,1242.7,777.5z M1242.7,518.4c-69.1,0-125.2,56.2-125.2,125.2c0,69.1,56.2,125.2,125.2,125.2
		S1368,712.8,1368,643.7C1368,574.6,1311.8,518.4,1242.7,518.4z"/>
</g>
<g>
	<path d="M1557.9,777.5c-73.8,0-133.8-60-133.8-133.8c0-73.8,60-133.8,133.8-133.8c73.8,0,133.8,60,133.8,133.8
		C1691.7,717.5,1631.7,777.5,1557.9,777.5z M1557.9,518.4c-69.1,0-125.2,56.2-125.2,125.2c0,69.1,56.2,125.2,125.2,125.2
		c69.1,0,125.2-56.2,125.2-125.2C1683.2,574.6,1627,518.4,1557.9,518.4z"/>
</g>
<g>
	<path d="M1880.1,777.5c-73.8,0-133.8-60-133.8-133.8c0-73.8,60-133.8,133.8-133.8c73.8,0,133.8,60,133.8,133.8
		C2013.9,717.5,1953.9,777.5,1880.1,777.5z M1880.1,518.4c-69.1,0-125.2,56.2-125.2,125.2c0,69.1,56.2,125.2,125.2,125.2
		c69.1,0,125.2-56.2,125.2-125.2C2005.3,574.6,1949.1,518.4,1880.1,518.4z"/>
</g>
<g>
	<path d="M2193.6,777.5c-73.8,0-133.8-60-133.8-133.8c0-73.8,60-133.8,133.8-133.8s133.8,60,133.8,133.8
		C2327.4,717.5,2267.3,777.5,2193.6,777.5z M2193.6,518.4c-69.1,0-125.2,56.2-125.2,125.2c0,69.1,56.2,125.2,125.2,125.2
		c69.1,0,125.2-56.2,125.2-125.2C2318.8,574.6,2262.6,518.4,2193.6,518.4z"/>
</g>
<g>
	<path d="M2514.7,777.5c-73.8,0-133.8-60-133.8-133.8c0-73.8,60-133.8,133.8-133.8s133.8,60,133.8,133.8
		C2648.5,717.5,2588.5,777.5,2514.7,777.5z M2514.7,518.4c-69.1,0-125.2,56.2-125.2,125.2c0,69.1,56.2,125.2,125.2,125.2
		S2640,712.8,2640,643.7C2640,574.6,2583.8,518.4,2514.7,518.4z"/>
</g>
<ellipse transform="matrix(0.7071 -0.7071 0.7071 0.7071 14.9317 2077.0962)" cx="2514.7" cy="1020.5" rx="129.5" ry="129.5"/>
<g>
	<path d="M2835.9,777.5c-73.8,0-133.8-60-133.8-133.8c0-73.8,60-133.8,133.8-133.8c73.8,0,133.8,60,133.8,133.8
		C2969.7,717.5,2909.7,777.5,2835.9,777.5z M2835.9,518.4c-69.1,0-125.2,56.2-125.2,125.2c0,69.1,56.2,125.2,125.2,125.2
		c69.1,0,125.2-56.2,125.2-125.2C2961.2,574.6,2905,518.4,2835.9,518.4z"/>
</g>
<circle cx="2835.9" cy="1017.2" r="129.5"/>
<path class="st0" d="M1318.8,1018.5h-16.2v65.8h-43.7v-30.9c0-9-7.2-16.2-16.2-16.2h0c-8.9,0-16.2,7.2-16.2,16.2v30.9h-43.7v-65.8
	h-16.2l76-72l28.7,27.2v-15.5h21.1v35.5L1318.8,1018.5z"/>
<path d="M1558.8,201.2h-1.8c-65.4,0-102.1,75.2-61.9,126.8l62.8,80.6l62.8-80.6C1660.9,276.4,1624.2,201.2,1558.8,201.2z
	 M1557.9,307.4c-17.1,0-31-13.9-31-31s13.9-31,31-31c17.1,0,31,13.9,31,31S1575,307.4,1557.9,307.4z"/>
<path d="M1558.6,567.4h-1.3c-48.1,0-75.2,55.4-45.6,93.3l46.2,59.3l46.2-59.3C1633.8,622.7,1606.7,567.4,1558.6,567.4z
	 M1557.9,645.6c-12.6,0-22.8-10.2-22.8-22.8c0-12.6,10.2-22.8,22.8-22.8s22.8,10.2,22.8,22.8
	C1580.7,635.3,1570.5,645.6,1557.9,645.6z"/>
<ellipse transform="matrix(0.7071 -0.7071 0.7071 0.7071 -261.6688 1399.0248)" cx="1557.9" cy="1015.4" rx="129.5" ry="129.5"/>
<path class="st0" d="M1558.6,939h-1.3c-48.1,0-75.2,55.4-45.6,93.3l46.2,59.3l46.2-59.3C1633.8,994.4,1606.7,939,1558.6,939z
	 M1557.9,1017.2c-12.6,0-22.8-10.2-22.8-22.8c0-12.6,10.2-22.8,22.8-22.8c12.6,0,22.8,10.2,22.8,22.8
	C1580.7,1007,1570.5,1017.2,1557.9,1017.2z"/>
<g>
	<g>
		<path d="M1879.7,206.8c-55.6,0-100.9,45.3-100.9,100.9c0,55.6,45.3,100.9,100.9,100.9c55.7,0,100.9-45.3,100.9-100.9
			C1980.6,252,1935.4,206.8,1879.7,206.8z M1847.5,221.1c-9,8.8-16.5,21.5-21.7,36.7c-6.9-1.4-13.7-3-20.4-4.9
			C1815.9,238.6,1830.5,227.4,1847.5,221.1z M1801.5,258.5c7.4,2.2,14.8,4,22.3,5.5c-3.5,12.1-5.6,25.5-5.9,39.8l-30.6,0.6
			C1788,287.5,1793.1,271.9,1801.5,258.5z M1787.4,310.8l30.5-0.6c0.2,15.2,2.5,29.6,6.3,42.4c-7.7,1.1-15.4,2.3-23,3.7
			C1792.9,343,1787.9,327.5,1787.4,310.8z M1805.2,362.3c7-1.2,14-2.3,21.1-3.3c5.2,14.6,12.4,26.7,21.1,35.2
			C1830.4,387.8,1815.8,376.6,1805.2,362.3z M1873.7,399.8c-2.6-0.1-5.2-0.4-7.8-0.8c-13.9-5.3-25.7-20.3-33.2-40.9
			c13.6-1.7,27.3-3,40.9-3.7V399.8z M1873.7,347.9c-14.4,0.8-28.7,2.1-43,4c-3.8-12.5-6-26.6-6.2-41.7l49.2-0.9V347.9z
			 M1873.7,302.7l-49.2,0.9c0.3-13.8,2.3-26.8,5.7-38.4c14.3,2.6,28.9,4.1,43.5,4.4V302.7z M1873.7,263.1c-14-0.3-27.8-1.7-41.6-4.1
			c7.4-21.5,19.5-37.2,33.8-42.6c2.5-0.4,5.1-0.7,7.8-0.8V263.1z M1971.8,300.9l-36.1,0.7c-0.4-13-2.4-25.3-5.5-36.5
			c9.3-1.7,18.6-3.9,27.7-6.5C1965.7,271,1970.7,285.4,1971.8,300.9z M1954,252.9c-8.5,2.4-17.1,4.3-25.7,5.9
			c-5.8-17.4-14.5-31.5-25.1-40.5C1923.9,223.8,1941.7,236.2,1954,252.9z M1880.1,215.3c1.8,0,3.5,0.1,5.3,0.2
			c15.6,4.5,28.8,21.2,36.6,44.4c-13.8,2.2-27.8,3.2-41.9,3.3V215.3z M1880.1,269.7c14.7,0,29.3-1.2,43.8-3.5
			c3,10.8,4.9,22.8,5.3,35.5l-49.1,0.9V269.7z M1880.1,309.1l49.3-0.9c0,13.9-1.8,27.1-4.9,39c-14-0.4-28-0.3-41.9,0.3
			c-0.8,0-1.6,0.1-2.4,0.1V309.1z M1885.3,399.8c-1.7,0.1-3.5,0.2-5.3,0.2v-46c0.9,0,1.8-0.1,2.7-0.1c13.2-0.6,26.5-0.7,39.8-0.3
			C1914.9,377.7,1901.3,395.2,1885.3,399.8z M1903.2,397c11.1-9.4,20.2-24.6,25.9-43.2c9.8,0.4,19.7,1,29.5,1.8
			C1946.3,375.7,1926.6,390.8,1903.2,397z M1962.1,349.4c-10.3-0.9-20.7-1.6-31.1-2c3.1-12.1,4.9-25.4,4.9-39.3l36.2-0.7v0.3
			C1972.1,322.7,1968.5,336.8,1962.1,349.4z"/>
	</g>
</g>
<g>
	<g>
		<path d="M1880.1,572.2c-39.4,0-71.5,32.1-71.5,71.5c0,39.4,32.1,71.5,71.5,71.5c39.4,0,71.5-32.1,71.5-71.5
			C1951.6,604.3,1919.5,572.2,1880.1,572.2z M1857.2,582.4c-6.4,6.2-11.7,15.2-15.3,26c-4.9-1-9.7-2.1-14.5-3.5
			C1834.9,594.8,1845.3,586.8,1857.2,582.4z M1824.7,608.9c5.2,1.5,10.5,2.8,15.8,3.9c-2.5,8.6-3.9,18.1-4.1,28.2l-21.7,0.4
			C1815.1,629.4,1818.7,618.3,1824.7,608.9z M1814.7,645.9l21.6-0.4c0.2,10.8,1.7,21,4.5,30.1c-5.5,0.8-10.9,1.6-16.3,2.6
			C1818.6,668.7,1815.1,657.7,1814.7,645.9z M1827.3,682.4c5-0.9,9.9-1.7,14.9-2.3c3.6,10.3,8.8,18.9,15,25
			C1845.2,700.5,1834.8,692.5,1827.3,682.4z M1875.8,709c-1.9-0.1-3.7-0.3-5.5-0.6c-9.8-3.7-18.2-14.4-23.5-29
			c9.6-1.2,19.3-2.1,29-2.6V709z M1875.8,672.2c-10.2,0.6-20.4,1.5-30.5,2.8c-2.7-8.8-4.3-18.9-4.4-29.5l34.9-0.7V672.2z
			 M1875.8,640.2l-34.9,0.7c0.2-9.8,1.7-19,4-27.2c10.2,1.8,20.5,2.9,30.8,3.1V640.2z M1875.8,612.1c-9.9-0.2-19.7-1.2-29.4-2.9
			c5.2-15.2,13.8-26.4,23.9-30.2c1.8-0.3,3.6-0.5,5.5-0.6V612.1z M1945.3,638.9l-25.6,0.5c-0.3-9.2-1.7-17.9-3.9-25.8
			c6.6-1.2,13.1-2.7,19.6-4.6C1941,617.7,1944.5,627.9,1945.3,638.9z M1932.7,604.9c-6,1.7-12.1,3.1-18.2,4.2
			c-4.1-12.3-10.3-22.3-17.7-28.7C1911.4,584.3,1924,593.1,1932.7,604.9z M1880.3,578.3c1.3,0,2.5,0,3.7,0.1
			c11,3.2,20.4,15,25.9,31.4c-9.8,1.5-19.7,2.3-29.7,2.3V578.3z M1880.3,616.8c10.4,0,20.8-0.8,31-2.5c2.2,7.7,3.5,16.2,3.8,25.1
			l-34.8,0.7V616.8z M1880.3,644.7l34.9-0.7c0,9.9-1.3,19.2-3.5,27.6c-9.9-0.3-19.8-0.2-29.7,0.2c-0.6,0-1.1,0-1.7,0.1V644.7z
			 M1884.1,709c-1.2,0.1-2.5,0.1-3.7,0.1v-32.6c0.6,0,1.3-0.1,1.9-0.1c9.4-0.4,18.8-0.5,28.2-0.2
			C1905,693.3,1895.4,705.7,1884.1,709z M1896.8,707c7.8-6.7,14.3-17.4,18.4-30.6c7,0.3,13.9,0.7,20.9,1.3
			C1927.3,691.9,1913.3,702.6,1896.8,707z M1938.4,673.2c-7.3-0.7-14.7-1.2-22-1.4c2.2-8.5,3.4-18,3.5-27.8l25.6-0.5v0.2
			C1945.5,654.3,1943,664.4,1938.4,673.2z"/>
	</g>
</g>
<circle cx="1880.1" cy="1017.2" r="129.5"/>
<circle cx="2193.6" cy="1017.2" r="129.5"/>
<g>
	<g>
		<path class="st0" d="M1880.1,945.8c-39.4,0-71.5,32.1-71.5,71.5s32.1,71.5,71.5,71.5c39.4,0,71.5-32.1,71.5-71.5
			S1919.5,945.8,1880.1,945.8z M1857.2,955.9c-6.4,6.2-11.7,15.2-15.3,26c-4.9-1-9.7-2.1-14.5-3.5
			C1834.9,968.3,1845.3,960.4,1857.2,955.9z M1824.7,982.4c5.2,1.5,10.5,2.8,15.8,3.9c-2.5,8.6-3.9,18.1-4.1,28.2l-21.7,0.4
			C1815.1,1003,1818.7,991.9,1824.7,982.4z M1814.7,1019.5l21.6-0.4c0.2,10.8,1.7,21,4.5,30.1c-5.5,0.8-10.9,1.6-16.3,2.6
			C1818.6,1042.3,1815.1,1031.3,1814.7,1019.5z M1827.3,1055.9c5-0.9,9.9-1.7,14.9-2.3c3.6,10.3,8.8,18.9,15,25
			C1845.2,1074,1834.8,1066.1,1827.3,1055.9z M1875.8,1082.5c-1.9-0.1-3.7-0.3-5.5-0.6c-9.8-3.7-18.2-14.4-23.5-29
			c9.6-1.2,19.3-2.1,29-2.6V1082.5z M1875.8,1045.7c-10.2,0.6-20.4,1.5-30.5,2.8c-2.7-8.8-4.3-18.9-4.4-29.5l34.9-0.7V1045.7z
			 M1875.8,1013.7l-34.9,0.7c0.2-9.8,1.7-19,4-27.2c10.2,1.8,20.5,2.9,30.8,3.1V1013.7z M1875.8,985.7c-9.9-0.2-19.7-1.2-29.4-2.9
			c5.2-15.2,13.8-26.4,23.9-30.2c1.8-0.3,3.6-0.5,5.5-0.6V985.7z M1945.3,1012.4l-25.6,0.5c-0.3-9.2-1.7-17.9-3.9-25.8
			c6.6-1.2,13.1-2.7,19.6-4.6C1941,991.3,1944.5,1001.5,1945.3,1012.4z M1932.7,978.5c-6,1.7-12.1,3.1-18.2,4.2
			c-4.1-12.3-10.3-22.3-17.7-28.7C1911.4,957.8,1924,966.6,1932.7,978.5z M1880.3,951.8c1.3,0,2.5,0,3.7,0.1
			c11,3.2,20.4,15,25.9,31.4c-9.8,1.5-19.7,2.3-29.7,2.3V951.8z M1880.3,990.3c10.4,0,20.8-0.8,31-2.5c2.2,7.7,3.5,16.2,3.8,25.1
			l-34.8,0.7V990.3z M1880.3,1018.3l34.9-0.7c0,9.9-1.3,19.2-3.5,27.6c-9.9-0.3-19.8-0.2-29.7,0.2c-0.6,0-1.1,0-1.7,0.1V1018.3z
			 M1884.1,1082.5c-1.2,0.1-2.5,0.1-3.7,0.1v-32.6c0.6,0,1.3-0.1,1.9-0.1c9.4-0.4,18.8-0.5,28.2-0.2
			C1905,1066.9,1895.4,1079.3,1884.1,1082.5z M1896.8,1080.5c7.8-6.7,14.3-17.4,18.4-30.6c7,0.3,13.9,0.7,20.9,1.3
			C1927.3,1065.5,1913.3,1076.1,1896.8,1080.5z M1938.4,1046.8c-7.3-0.7-14.7-1.2-22-1.4c2.2-8.5,3.4-18,3.5-27.8l25.7-0.5v0.2
			C1945.5,1027.9,1943,1037.9,1938.4,1046.8z"/>
	</g>
</g>
<g>
	<path d="M2256.2,213.5c12.7,6.4,22.4,15.4,29.1,27c6.7,11.6,10,25,10,40.3c0,12.3-2.1,24-6.3,35.2c-4.2,11.2-10.3,20.3-18.2,27.3
		c-7.9,7-17.2,10.6-27.9,10.6c-7.8,0-13.9-1.7-18.4-5.2c-4.4-3.4-7.2-8.3-8.3-14.6c-4.7,6.1-10.7,11-17.9,14.5
		c-7.2,3.5-14.7,5.3-22.5,5.3c-11.8,0-21-3.6-27.7-10.7c-6.7-7.1-10-16.8-10-29.1c0-11.6,2.4-22.5,7.2-32.6
		c4.8-10.1,11.6-18.2,20.3-24.2c8.7-6.1,18.5-9.1,29.4-9.1c13.3,0,22.7,4.5,28,13.6l2.1-11.5h22.8l-11.5,65.7
		c-0.5,3.2-0.7,6.1-0.7,8.5c0,4,0.8,7,2.4,9c1.6,2,4.5,3,8.6,3c5.8,0,10.8-2.9,14.9-8.6c4.1-5.7,7.2-12.8,9.3-21.3
		c2.1-8.4,3.1-16.6,3.1-24.6c0-19.5-5.7-34.3-17-44.6c-11.3-10.3-27.8-15.4-49.4-15.4c-18.1,0-34.3,4.3-48.6,12.9
		c-14.3,8.6-25.6,20.4-33.7,35.4c-8.1,15-12.2,31.7-12.2,50.1c0,19.6,5.8,34.5,17.5,44.8c11.6,10.3,28.3,15.4,49.9,15.4
		c14.6,0,27.3-2.7,38.1-8l3.4,17.5c-13.9,6-29.6,9-46.9,9c-16.7,0-31.3-3.1-43.9-9.4c-12.6-6.3-22.3-15.2-29.2-26.8
		c-6.9-11.6-10.3-25-10.3-40.3c0-21.9,5.1-41.9,15.3-60c10.2-18.1,24.3-32.4,42.4-42.9c18.1-10.5,38.5-15.7,61.4-15.7
		C2228.4,203.8,2243.5,207,2256.2,213.5z M2201.4,328c5.3-3.8,9.5-8.7,12.5-14.9c3.1-6.2,4.6-12.8,4.6-19.9c0-7.4-2-13.4-6.1-18
		c-4.1-4.7-9.8-7-17.1-7c-6.6,0-12.4,2-17.3,6.1c-5,4.1-8.8,9.3-11.5,15.7c-2.7,6.4-4,13.2-4,20.2c0,7.2,1.8,12.9,5.3,17.1
		c3.5,4.2,8.9,6.3,16.1,6.3C2190.2,333.7,2196.1,331.8,2201.4,328z"/>
</g>
<g>
	<path d="M2237.7,581.7c9,4.5,15.8,10.9,20.5,19c4.7,8.2,7,17.6,7,28.4c0,8.6-1.5,16.9-4.5,24.8c-3,7.9-7.2,14.3-12.8,19.3
		c-5.6,5-12.1,7.5-19.7,7.5c-5.5,0-9.8-1.2-13-3.6c-3.1-2.4-5.1-5.9-5.8-10.3c-3.3,4.3-7.6,7.7-12.6,10.2
		c-5.1,2.5-10.4,3.7-15.9,3.7c-8.3,0-14.8-2.5-19.5-7.5c-4.7-5-7-11.9-7-20.5c0-8.2,1.7-15.9,5.1-23c3.4-7.1,8.2-12.8,14.3-17.1
		c6.2-4.3,13.1-6.4,20.7-6.4c9.4,0,16,3.2,19.8,9.6l1.5-8.1h16l-8.1,46.3c-0.3,2.3-0.5,4.3-0.5,6c0,2.8,0.6,4.9,1.7,6.3
		c1.1,1.4,3.2,2.1,6.1,2.1c4.1,0,7.6-2,10.5-6.1c2.9-4,5.1-9,6.6-15c1.5-5.9,2.2-11.7,2.2-17.3c0-13.7-4-24.2-12-31.4
		c-8-7.2-19.6-10.9-34.8-10.9c-12.7,0-24.2,3-34.3,9.1c-10.1,6-18,14.4-23.7,24.9c-5.7,10.6-8.6,22.4-8.6,35.3
		c0,13.8,4.1,24.4,12.3,31.6c8.2,7.2,19.9,10.9,35.2,10.9c10.3,0,19.2-1.9,26.9-5.7l2.4,12.3c-9.8,4.2-20.8,6.3-33,6.3
		c-11.8,0-22.1-2.2-30.9-6.6c-8.9-4.4-15.7-10.7-20.6-18.9c-4.9-8.2-7.3-17.6-7.3-28.4c0-15.4,3.6-29.5,10.8-42.3
		c7.2-12.7,17.1-22.8,29.9-30.2c12.7-7.4,27.2-11.1,43.3-11.1C2218.1,574.9,2228.7,577.2,2237.7,581.7z M2199.1,662.5
		c3.7-2.6,6.7-6.2,8.8-10.5c2.2-4.4,3.2-9,3.2-14c0-5.2-1.4-9.4-4.3-12.7c-2.9-3.3-6.9-4.9-12.1-4.9c-4.6,0-8.7,1.4-12.2,4.3
		c-3.5,2.9-6.2,6.6-8.1,11.1c-1.9,4.5-2.8,9.3-2.8,14.3c0,5.1,1.2,9.1,3.7,12.1c2.5,3,6.3,4.5,11.3,4.5
		C2191.2,666.5,2195.3,665.1,2199.1,662.5z"/>
</g>
<g>
	<path class="st0" d="M2237.7,955.3c9,4.5,15.8,10.9,20.5,19c4.7,8.2,7,17.6,7,28.4c0,8.6-1.5,16.9-4.5,24.8
		c-3,7.9-7.2,14.3-12.8,19.3c-5.6,5-12.1,7.5-19.7,7.5c-5.5,0-9.8-1.2-13-3.6c-3.1-2.4-5.1-5.9-5.8-10.3c-3.3,4.3-7.6,7.7-12.6,10.2
		c-5.1,2.5-10.4,3.7-15.9,3.7c-8.3,0-14.8-2.5-19.5-7.5c-4.7-5-7-11.9-7-20.5c0-8.2,1.7-15.9,5.1-23c3.4-7.1,8.2-12.8,14.3-17.1
		c6.2-4.3,13.1-6.4,20.7-6.4c9.4,0,16,3.2,19.8,9.6l1.5-8.1h16l-8.1,46.3c-0.3,2.3-0.5,4.3-0.5,6c0,2.8,0.6,4.9,1.7,6.3
		c1.1,1.4,3.2,2.1,6.1,2.1c4.1,0,7.6-2,10.5-6.1s5.1-9,6.6-15c1.5-5.9,2.2-11.7,2.2-17.3c0-13.7-4-24.2-12-31.4
		c-8-7.2-19.6-10.9-34.8-10.9c-12.7,0-24.2,3-34.3,9.1c-10.1,6-18,14.4-23.7,24.9c-5.7,10.6-8.6,22.4-8.6,35.3
		c0,13.8,4.1,24.4,12.3,31.6c8.2,7.2,19.9,10.9,35.2,10.9c10.3,0,19.2-1.9,26.9-5.7l2.4,12.3c-9.8,4.2-20.8,6.3-33,6.3
		c-11.8,0-22.1-2.2-30.9-6.6c-8.9-4.4-15.7-10.7-20.6-18.9c-4.9-8.2-7.3-17.6-7.3-28.4c0-15.4,3.6-29.5,10.8-42.3
		c7.2-12.7,17.1-22.8,29.9-30.2c12.7-7.4,27.2-11.1,43.3-11.1C2218.1,948.5,2228.7,950.7,2237.7,955.3z M2199.1,1036
		c3.7-2.6,6.7-6.2,8.8-10.5c2.2-4.4,3.2-9,3.2-14c0-5.2-1.4-9.4-4.3-12.7c-2.9-3.3-6.9-4.9-12.1-4.9c-4.6,0-8.7,1.4-12.2,4.3
		c-3.5,2.9-6.2,6.6-8.1,11.1c-1.9,4.5-2.8,9.3-2.8,14.3c0,5.1,1.2,9.1,3.7,12.1c2.5,3,6.3,4.5,11.3,4.5
		C2191.2,1040,2195.3,1038.7,2199.1,1036z"/>
</g>
<path d="M2930.4,230.6h-188.9c-3.7,0-6.7,3-6.7,6.7v128.1c0,3.7,3,6.7,6.7,6.7h188.9c3.7,0,6.7-3,6.7-6.7V237.3
	C2937.1,233.6,2934.1,230.6,2930.4,230.6z M2927.7,246.6v109.5l-54.7-54.7L2927.7,246.6z M2750.8,362.7l54.8-54.8l25.5,25.5
	c1.3,1.3,3.1,2,5,2c1.9,0,3.6-0.7,5-2.1l25.5-25.5l54.8,54.8H2750.8z M2921.1,240l-85.2,85.2l-85.2-85.2H2921.1z M2798.9,301.4
	l-54.8,54.8V246.6L2798.9,301.4z"/>
<path d="M2915.5,584.1h-159.1c-3.1,0-5.6,2.5-5.6,5.6v107.9c0,3.1,2.5,5.6,5.6,5.6h159.1c3.1,0,5.6-2.5,5.6-5.6V589.7
	C2921.1,586.6,2918.6,584.1,2915.5,584.1z M2913.3,597.6v92.2l-46.1-46.1L2913.3,597.6z M2764.2,695.4l46.1-46.1l21.5,21.5
	c1.1,1.1,2.6,1.7,4.2,1.7c1.6,0,3.1-0.6,4.2-1.7l21.5-21.5l46.1,46.1H2764.2z M2907.7,592l-71.8,71.8l-71.8-71.8H2907.7z
	 M2804.7,643.7l-46.1,46.1v-92.2L2804.7,643.7z"/>
<path class="st0" d="M2915.5,957.7h-159.1c-3.1,0-5.6,2.5-5.6,5.6v107.9c0,3.1,2.5,5.6,5.6,5.6h159.1c3.1,0,5.6-2.5,5.6-5.6V963.3
	C2921.1,960.2,2918.6,957.7,2915.5,957.7z M2913.3,971.1v92.2l-46.1-46.1L2913.3,971.1z M2764.2,1068.9l46.1-46.1l21.5,21.5
	c1.1,1.1,2.6,1.7,4.2,1.7c1.6,0,3.1-0.6,4.2-1.7l21.5-21.5l46.1,46.1H2764.2z M2907.7,965.5l-71.8,71.8l-71.8-71.8H2907.7z
	 M2804.7,1017.3l-46.1,46.1v-92.2L2804.7,1017.3z"/>
<g id="XMLID_00000153678510623437795300000006601371684793069467_">
	<path id="XMLID_00000075150061374883102640000012393167081064290441_" class="st1" d="M2590.9,350.4c-3.7-2.8-21.8-16.2-25.2-18.2
		c-3.5-2.1-6-3.2-9.5,0.3c-3.4,3.5-12.9,11.1-15.7,13.3c-2.9,2.3-5.3,2.1-9-0.6c-3.6-2.8-15.9-9.3-28.8-25.9
		c-10-12.8-15.8-27.4-17.3-31.9c-1.6-4.4,0.9-6.2,3.3-7.9c2.2-1.5,4.9-4,7.4-5.9c0.7-0.6,1.2-1.1,1.8-1.7c1.2-1.3,2.2-2.6,3.4-4.3
		c1.9-2.4,1.6-4.9,1-7.1c-0.6-2.2-5.1-23.5-7-32.1c-1.8-8.6-5.5-7.9-7.9-8.3c-2.3-0.4-4.9-1.3-7.7-1.8c-2.7-0.5-7.3-0.3-11.7,3
		c-4.4,3.3-16.7,11.1-20.3,30.9c-0.9,4.6-0.9,9.4-0.4,14.1c1.5,14.9,8.1,28.2,9.3,30.5c1.5,3,19.7,49.6,57.8,73.4
		c38.2,23.6,39.2,18.3,46.7,19c7.5,0.8,25.7-5.2,30.8-14c5.1-8.7,6.6-16.7,5.9-18.6C2597.1,354.7,2594.5,353.2,2590.9,350.4z"/>
</g>
<g id="XMLID_00000084528309787270644190000013078162628493925518_">
	<path id="XMLID_00000078022833217557545160000001223785498784142477_" class="st1" d="M2570.5,681.8c-3-2.2-17.7-13.2-20.6-14.8
		c-2.8-1.7-4.9-2.6-7.7,0.3c-2.8,2.9-10.5,9-12.8,10.8c-2.4,1.8-4.3,1.7-7.3-0.5c-3-2.2-13-7.6-23.5-21.1
		c-8.2-10.4-12.8-22.4-14.1-26c-1.3-3.6,0.7-5.1,2.7-6.4c1.8-1.2,4-3.2,6-4.8c0.5-0.5,1-0.9,1.5-1.4c1-1.1,1.8-2.1,2.8-3.5
		c1.5-2,1.3-4,0.8-5.8c-0.5-1.8-4.1-19.1-5.7-26.2c-1.5-7-4.5-6.4-6.4-6.8c-1.9-0.3-4-1.1-6.2-1.5c-2.2-0.4-5.9-0.3-9.6,2.5
		c-3.6,2.7-13.6,9.1-16.6,25.2c-0.7,3.8-0.7,7.7-0.4,11.5c1.2,12.1,6.6,23,7.6,24.8c1.2,2.4,16.1,40.5,47.1,59.8
		c31.1,19.2,31.9,14.9,38.1,15.4c6.1,0.6,21-4.3,25.1-11.4c4.2-7.1,5.4-13.6,4.8-15.2C2575.5,685.2,2573.5,684,2570.5,681.8z"/>
</g>
<g id="XMLID_00000132768984142926557130000008553888714498156715_">
	<path id="XMLID_00000016773998470784597980000018361827249658772917_" class="st2" d="M2570.5,1058.6c-3-2.2-17.7-13.2-20.6-14.8
		c-2.8-1.7-4.9-2.6-7.7,0.3c-2.8,2.9-10.5,9-12.8,10.8c-2.4,1.8-4.3,1.7-7.3-0.5c-3-2.2-13-7.6-23.5-21.1
		c-8.2-10.4-12.8-22.4-14.1-26c-1.3-3.6,0.7-5.1,2.7-6.4c1.8-1.2,4-3.2,6-4.8c0.5-0.5,1-0.9,1.5-1.4c1-1.1,1.8-2.1,2.8-3.5
		c1.5-2,1.3-4,0.8-5.8c-0.5-1.8-4.1-19.1-5.7-26.2c-1.5-7-4.5-6.4-6.4-6.8c-1.9-0.3-4-1.1-6.2-1.5c-2.2-0.4-5.9-0.3-9.6,2.5
		c-3.6,2.7-13.6,9.1-16.6,25.2c-0.7,3.8-0.7,7.7-0.4,11.5c1.2,12.1,6.6,23,7.6,24.8c1.2,2.4,16.1,40.5,47.1,59.8
		c31.1,19.2,31.9,14.9,38.1,15.4c6.1,0.6,21-4.3,25.1-11.4c4.2-7.1,5.4-13.6,4.8-15.2C2575.5,1062.1,2573.5,1060.8,2570.5,1058.6z"
		/>
</g>
<g>
	<path d="M247.3,380.4c-73.8,0-133.8-60-133.8-133.8c0-73.8,60-133.8,133.8-133.8c73.8,0,133.8,60,133.8,133.8
		C381.1,320.4,321.1,380.4,247.3,380.4z M247.3,121.4c-69.1,0-125.2,56.2-125.2,125.2c0,69.1,56.2,125.2,125.2,125.2
		c69.1,0,125.2-56.2,125.2-125.2C372.5,177.6,316.4,121.4,247.3,121.4z"/>
</g>
<path d="M247.9,170.3h-1.3c-48.1,0-75.2,55.4-45.6,93.3l46.2,59.3l46.2-59.3C323.1,225.7,296.1,170.3,247.9,170.3z M247.3,248.5
	c-12.6,0-22.8-10.2-22.8-22.8c0-12.6,10.2-22.8,22.8-22.8c12.6,0,22.8,10.2,22.8,22.8C270.1,238.3,259.9,248.5,247.3,248.5z"/>
</svg>
